<?xml version="1.0" encoding="UTF-8"?>
<svg id="Lager_1" data-name="Lager 1" xmlns="http://www.w3.org/2000/svg" viewBox="0 0 30.4 22.47">
  <defs>
    <style>
      .cls-1 {
        fill: #1d1d1b;
      }
    </style>
  </defs>
  <path class="cls-1" d="M29.58,2.54L1.38,2.21c-.45,0-.8-.5-.8-1.12h0C.59.49.95,0,1.4,0l28.2.33c.45,0,.8.5.8,1.12h0c0,.61-.37,1.1-.81,1.1Z"/>
  <path class="cls-1" d="M0,21.4L.24.59C.24.26.61,0,1.05,0h0c.45,0,.81.27.8.6l-.24,20.81c0,.33-.37.59-.81.59h0c-.45,0-.81-.27-.8-.6Z"/>
  <path class="cls-1" d="M29,22.47l-28.2-.33C.35,22.14,0,21.64,0,21.03h0c0-.61.37-1.1.81-1.1l28.2.33c.45,0,.8.5.8,1.12h0c0,.61-.37,1.1-.81,1.1Z"/>
  <path class="cls-1" d="M28.54,21.87l.24-20.81c0-.33.37-.59.81-.59h0c.45,0,.81.27.8.6l-.24,20.81c0,.33-.37.59-.81.59h0c-.45,0-.81-.27-.8-.6Z"/>
  <path class="cls-1" d="M15.12,12.78L.78,3.32c-.23-.15-.26-.72-.07-1.27h0c.19-.55.53-.88.75-.73l14.34,9.46c.23.15.26.72.07,1.27h0c-.19.55-.53.88-.75.73Z"/>
  <path class="cls-1" d="M29.33,3.02l-13.5,9.56c-.21.15-.56-.16-.77-.7h0c-.21-.54-.21-1.1,0-1.25L28.57,1.07c.21-.15.56.16.77.7h0c.21.54.21,1.1,0,1.25Z"/>
</svg>