<?xml version="1.0" encoding="UTF-8"?>
<svg id="Lager_1" data-name="Lager 1" xmlns="http://www.w3.org/2000/svg" viewBox="0 0 26.86 26.86">
  <defs>
    <style>
      .cls-1 {
        fill: #1d1d1b;
      }
    </style>
  </defs>
  <path class="cls-1" d="M14.3,17.12c0,.35,0,.69.03,1.02.02.33.08.61.18.84.1.23.25.42.45.56.2.14.49.21.85.21.18,0,.39-.02.63-.06.23-.04.46-.1.67-.16.21-.07.39-.13.55-.2.16-.07.25-.12.29-.15.05-.05.08-.05.1,0,.02.05.02.11.01.19,0,.08-.03.15-.06.23-.03.08-.08.13-.13.16-.17.08-.46.23-.88.45-.42.22-.91.44-1.48.68-.54.23-1.06.43-1.57.59-.51.16-.93.24-1.27.24-.39,0-.69-.12-.9-.35-.22-.23-.33-.53-.33-.88,0-.12,0-.22.01-.3,0-.08.02-.19.04-.33.02-.17.05-.47.09-.92.04-.44.08-.94.13-1.49.04-.55.08-1.11.11-1.67.03-.56.05-1.04.05-1.44v-.88c0-.44-.03-.82-.08-1.15-.05-.33-.13-.59-.25-.78-.08-.12-.19-.21-.31-.29-.13-.08-.28-.11-.46-.11-.1,0-.2.02-.3.06-.1.04-.18.06-.23.06-.03,0-.09-.05-.16-.15-.08-.1-.07-.18.01-.23.12-.08.36-.22.73-.4.37-.18.77-.38,1.21-.6.47-.23.92-.44,1.36-.62.43-.18.74-.26.93-.26s.31.05.38.16c.07.11.1.23.1.36v.1c0,.17-.03.44-.08.8-.05.37-.1.82-.16,1.36-.06.54-.11,1.15-.16,1.86-.05.7-.08,1.46-.08,2.28v1.2ZM13.3,4.07c.08.02.22.11.41.28.19.17.39.36.59.58.2.22.38.43.53.63s.23.33.23.4c0,.08-.1.21-.3.38-.2.17-.43.34-.69.51-.26.18-.51.33-.75.46-.24.13-.41.2-.51.2-.05,0-.17-.08-.36-.24-.19-.16-.39-.34-.59-.54-.2-.2-.38-.4-.54-.59-.16-.19-.24-.32-.24-.39,0-.08.11-.21.33-.39.22-.18.46-.36.72-.55.26-.19.51-.36.75-.5.24-.14.39-.22.44-.24Z"/>
  <path class="cls-1" d="M13.43,26.86C6.03,26.86,0,20.84,0,13.43S6.03,0,13.43,0s13.43,6.03,13.43,13.43-6.03,13.43-13.43,13.43ZM13.43,2.22C7.25,2.22,2.22,7.25,2.22,13.43s5.03,11.21,11.21,11.21,11.21-5.03,11.21-11.21S19.61,2.22,13.43,2.22Z"/>
</svg>