<?xml version="1.0" encoding="UTF-8"?>
<svg id="Lager_1" data-name="Lager 1" xmlns="http://www.w3.org/2000/svg" viewBox="0 0 30.03 30.03">
  <defs>
    <style>
      .cls-1 {
        fill: #1d1d1b;
      }
    </style>
  </defs>
  <path class="cls-1" d="M15.02,30.03C6.74,30.03,0,23.3,0,15.02S6.74,0,15.02,0s15.02,6.74,15.02,15.02-6.74,15.02-15.02,15.02ZM15.02,1.94C7.81,1.94,1.94,7.81,1.94,15.02s5.86,13.07,13.07,13.07,13.07-5.86,13.07-13.07S22.23,1.94,15.02,1.94Z"/>
  <path class="cls-1" d="M15.2,15.58l.1.95c0,.09,0,.18,0,.26l.03,7.38c0,.54-.43.98-.97.98h0c-.54,0-.98-.42-.99-.96-.03-1.77-.06-3.48-.07-4.81,0-.86,0-1.53,0-2.01,0-.26,0-.46.02-.6,0-.11.02-.21.04-.3v-.78s.92-.06.92-.06l.92-.05ZM15.28,16.47s0,0,0,0c0,0,0,0,0,0Z"/>
  <path class="cls-1" d="M23.39,16.03s-.09,0-.13,0h-9.91l-.02-1.94c2.48-.04,4.97-.06,6.84-.07,1.01,0,1.81,0,2.37,0,.31,0,.54.01.7.02.18,0,.33.03.45.07.41.1.72.46.74.9.02.45-.3.96-.92,1.01-.04,0-.08,0-.11,0Z"/>
</svg>