<?xml version="1.0" encoding="UTF-8"?>
<svg id="Lager_1" data-name="Lager 1" xmlns="http://www.w3.org/2000/svg" viewBox="0 0 34.77 33.78">
  <defs>
    <style>
      .cls-1 {
        fill: #1d1d1b;
      }
    </style>
  </defs>
  <path class="cls-1" d="M12.92,33.78l-.53-.29c-2.52-1.38-7.17-4.58-10.04-10.5C.13,18.4-.13,14.05.04,11.21l.02-.27.16-.23c.19-.28,4.84-6.89,12.93-6.4,6.73.41,10.47,5.4,11.15,6.4l.16.23v.28c.15,2.9-.17,7.35-2.4,12.08-2.43,5.14-6.03,8.34-8.63,10.13l-.5.34ZM1.99,11.62c-.12,2.61.17,6.46,2.13,10.51,2.44,5.04,6.29,7.93,8.68,9.33,2.34-1.7,5.38-4.57,7.47-8.99,1.99-4.22,2.33-8.19,2.24-10.87-.89-1.22-4.07-4.99-9.49-5.32-6.31-.38-10.21,4.25-11.03,5.34Z"/>
  <path class="cls-1" d="M12.25,19.49c-2.65,0-4.81-2.16-4.81-4.81s2.16-4.81,4.81-4.81,4.81,2.16,4.81,4.81-2.16,4.81-4.81,4.81ZM12.25,11.02c-2.02,0-3.66,1.64-3.66,3.66s1.64,3.66,3.66,3.66,3.66-1.64,3.66-3.66-1.64-3.66-3.66-3.66Z"/>
</svg>