<?xml version="1.0" encoding="UTF-8"?>
<svg id="Lager_1" data-name="Lager 1" xmlns="http://www.w3.org/2000/svg" viewBox="0 0 28.76 26.08">
  <defs>
    <style>
      .cls-1 {
        fill: #1d1d1b;
      }
    </style>
  </defs>
  <path class="cls-1" d="M21.65,26.08c-1.32,0-2.41-.34-3.13-.65h-.02c-3.74-1.71-7.15-3.88-10.13-6.47-1.07-.93-3.46-3.31-5.6-6.3-1-1.4-1.75-2.94-2.22-4.58C.27,7.08.08,6.06,0,5.03v-.04c-.03-.55.01-2.46,1.54-3.82C3.07-.19,5.36-.38,7.28.69c.63.24,2.67,1.19,3.37,3.4.67,2.13-.17,4.51-2.02,6.02.49.91,1.05,1.77,1.68,2.57,2.12,2.72,4.71,4.43,6.97,5.49-.13-1.12,0-2.38.83-3.33.61-.7,1.51-1.09,2.6-1.15,2.23-.11,4.86,1.19,6.29,2.53.45.42,1.51,1.41,1.72,2.99.12.92-.05,1.88-.48,2.72l-.05.08c-.38.6-.8,1.18-1.27,1.72-.3.35-.62.68-.95,1l-.09.08-.1.06c-1,.62-2.15,1.02-3.32,1.14-.28.03-.55.04-.81.04ZM19.48,23.25c.61.26,1.57.55,2.74.42.77-.08,1.54-.34,2.21-.74.24-.24.48-.49.7-.74.37-.43.72-.9,1.03-1.39.12-.25.29-.71.22-1.27-.09-.68-.56-1.17-.99-1.57-1.19-1.11-3.24-1.96-4.56-1.89-.44.02-.75.14-.94.34-.57.65-.16,2.36.24,3.29l1.04,2.46-2.52-.87c-2.9-1-7.02-3.06-10.21-7.15-.94-1.2-1.75-2.52-2.4-3.92l-.47-1,.96-.54c1.49-.84,2.29-2.5,1.86-3.88-.41-1.32-1.85-1.86-2.01-1.92l-.1-.04-.1-.06c-1.02-.6-2.28-.54-3.05.15-.75.67-.76,1.69-.75,1.93.07.86.22,1.72.46,2.55.4,1.38,1.03,2.68,1.88,3.86,2.01,2.81,4.23,5.02,5.23,5.89,2.8,2.44,6.02,4.49,9.54,6.09Z"/>
</svg>